<svg width="1074" height="735" viewBox="0 0 1074 735" fill="none" xmlns="http://www.w3.org/2000/svg">
<rect x="1" y="1" width="1072" height="732.842" rx="366.421" fill="#07359A" stroke="#07359A" stroke-width="2"/>
<path d="M451.696 202.419C455.11 178.881 483.249 168.486 501.145 184.151L565.482 240.468C572.285 246.423 581.411 248.993 590.321 247.462L674.59 232.984C698.031 228.957 716.613 252.506 707.244 274.368L673.565 352.959C670.003 361.269 670.38 370.742 674.589 378.743L714.399 454.414C725.472 475.463 708.818 500.412 685.131 498.258L599.979 490.513C590.975 489.694 582.082 492.979 575.773 499.455L516.108 560.699C499.511 577.736 470.636 569.606 465.366 546.413L446.419 463.035C444.415 454.219 438.542 446.777 430.434 442.778L353.749 404.958C332.418 394.438 331.227 364.464 351.656 352.284L425.098 308.5C432.864 303.87 438.127 295.985 439.425 287.037L451.696 202.419Z" fill="#F2C94C"/>
<circle cx="783.938" cy="367.201" r="35.8396" transform="rotate(22.2107 783.938 367.201)" fill="#F2C94C"/>
<path d="M706.74 366.654L770.196 334.494L767.072 399.03L706.74 366.654Z" fill="#F2C94C"/>
<circle cx="620.005" cy="601.754" r="35.8396" transform="rotate(86.7789 620.005 601.754)" fill="#F2C94C"/>
<path d="M587.351 531.8L643.644 575.296L584.02 600.19L587.351 531.8Z" fill="#F2C94C"/>
<circle cx="622.245" cy="149.925" r="35.8396" transform="rotate(-41.808 622.245 149.925)" fill="#F2C94C"/>
<path d="M587.932 219.072L586.822 147.941L643.467 179.02L587.932 219.072Z" fill="#F2C94C"/>
<circle cx="331.771" cy="228.778" r="35.8396" transform="rotate(-126.349 331.771 228.778)" fill="#F2C94C"/>
<path d="M397.35 269.515L326.436 263.853L362.764 210.421L397.35 269.515Z" fill="#F2C94C"/>
<circle cx="351.472" cy="534.86" r="35.8396" transform="rotate(156.561 351.472 534.86)" fill="#F2C94C"/>
<path d="M405.833 480.042L384.471 547.899L340.506 500.552L405.833 480.042Z" fill="#F2C94C"/>
</svg>
