<svg width="100" height="72" viewBox="0 0 100 72" fill="none" xmlns="http://www.w3.org/2000/svg">
<path d="M97.5909 9.70898L36.9714 70.3285C36.4434 70.8583 35.8161 71.2787 35.1253 71.5655C34.4345 71.8523 33.6939 72 32.9459 72C32.1979 72 31.4573 71.8523 30.7665 71.5655C30.0757 71.2787 29.4484 70.8583 28.9204 70.3285L2.39936 43.8074C1.87072 43.2788 1.45138 42.6512 1.16528 41.9605C0.879185 41.2698 0.731934 40.5295 0.731934 39.7819C0.731934 39.0343 0.879185 38.294 1.16528 37.6033C1.45138 36.9126 1.87072 36.2851 2.39936 35.7564C2.92799 35.2278 3.55558 34.8084 4.24628 34.5223C4.93698 34.2363 5.67726 34.089 6.42487 34.089C7.17248 34.089 7.91276 34.2363 8.60346 34.5223C9.29416 34.8084 9.92175 35.2278 10.4504 35.7564L32.9506 58.2567L89.5494 1.66742C90.617 0.599789 92.065 0 93.5749 0C95.0847 0 96.5327 0.599789 97.6004 1.66742C98.668 2.73505 99.2678 4.18308 99.2678 5.69294C99.2678 7.2028 98.668 8.65082 97.6004 9.71845L97.5909 9.70898Z" fill="#FED072"/>
</svg>
