<svg width="543" height="508" viewBox="0 0 543 508" fill="none" xmlns="http://www.w3.org/2000/svg">
<circle cx="175.792" cy="174.211" r="166.711" fill="white" stroke="#032161" stroke-width="15"/>
<path d="M31.5439 321.477L39.183 265.298L77.002 307.538L31.5439 321.477Z" fill="white" stroke="#032161" stroke-width="15"/>
<path d="M160.954 196.591H171.754C174.154 196.591 175.954 195.191 175.954 192.591V185.191C175.954 170.991 206.954 166.391 206.954 141.191C206.954 122.191 190.954 108.991 170.154 108.991C144.754 108.991 132.154 126.591 132.154 126.591C130.954 128.191 130.554 130.391 132.154 131.791L138.754 138.191C140.354 139.591 141.954 139.591 143.554 138.191C147.554 134.791 153.954 126.191 168.154 126.191C179.754 126.191 186.154 133.391 186.154 141.591C186.154 159.991 157.154 162.591 157.154 184.391V192.791C157.154 194.991 158.954 196.591 160.954 196.591ZM152.354 239.191C152.354 246.791 158.554 252.991 166.154 252.991C173.954 252.991 180.154 246.791 180.154 239.191C180.154 231.391 173.954 225.191 166.154 225.191C158.554 225.191 152.354 231.391 152.354 239.191Z" fill="#032161"/>
<path d="M193.5 332.004C193.5 428.381 271.277 506.507 367.214 506.507C463.152 506.507 540.929 428.381 540.929 332.004C540.929 235.626 463.152 157.5 367.214 157.5C271.277 157.5 193.5 235.626 193.5 332.004Z" fill="#D92D34" stroke="#D92D34"/>
<path d="M519.864 489.888L508.708 407.47L453.476 469.438L519.864 489.888Z" fill="#D92D34" stroke="#D92D34"/>
<path d="M270.96 315.433C259.268 274.31 330.931 298.383 368.224 315.56L397.452 418.366C360.159 401.19 282.651 356.556 270.96 315.433Z" fill="white"/>
<path d="M431.626 270.369C419.987 229.427 384.594 283.74 368.353 316.014L397.452 418.366C413.693 386.092 443.266 311.31 431.626 270.369Z" fill="white"/>
</svg>
