<svg width="567" height="449" viewBox="0 0 567 449" fill="none" xmlns="http://www.w3.org/2000/svg">
<circle cx="175.792" cy="174.211" r="166.711" fill="#07359A" stroke="#032161" stroke-width="15"/>
<path d="M31.5439 321.477L39.183 265.298L77.002 307.538L31.5439 321.477Z" fill="#07359A" stroke="#032161" stroke-width="15"/>
<path d="M160.954 196.591H171.754C174.154 196.591 175.954 195.191 175.954 192.591V185.191C175.954 170.991 206.954 166.391 206.954 141.191C206.954 122.191 190.954 108.991 170.154 108.991C144.754 108.991 132.154 126.591 132.154 126.591C130.954 128.191 130.554 130.391 132.154 131.791L138.754 138.191C140.354 139.591 141.954 139.591 143.554 138.191C147.554 134.791 153.954 126.191 168.154 126.191C179.754 126.191 186.154 133.391 186.154 141.591C186.154 159.991 157.154 162.591 157.154 184.391V192.791C157.154 194.991 158.954 196.591 160.954 196.591ZM152.354 239.191C152.354 246.791 158.554 252.991 166.154 252.991C173.954 252.991 180.154 246.791 180.154 239.191C180.154 231.391 173.954 225.191 166.154 225.191C158.554 225.191 152.354 231.391 152.354 239.191Z" fill="white"/>
<path d="M224.5 273.004C224.5 365.545 299.172 440.507 391.214 440.507C483.256 440.507 557.929 365.545 557.929 273.004C557.929 180.462 483.256 105.5 391.214 105.5C299.172 105.5 224.5 180.462 224.5 273.004Z" fill="white" stroke="#D92D34" stroke-width="15"/>
<path d="M535.466 420.976L527.819 364.486L489.962 406.96L535.466 420.976Z" fill="white" stroke="#D92D34" stroke-width="15"/>
<path d="M295.961 260.855C284.267 221.43 355.949 244.509 393.253 260.977L422.489 359.538C385.186 343.071 307.656 300.28 295.961 260.855Z" fill="#D92D34"/>
<path d="M456.673 217.652C445.03 178.401 409.627 230.471 393.381 261.412L422.488 359.538C438.734 328.597 468.316 256.902 456.673 217.652Z" fill="#D92D34"/>
</svg>
