<svg width="1168" height="1097" viewBox="0 0 1168 1097" fill="none" xmlns="http://www.w3.org/2000/svg">
<path d="M238 388.499L5.5 434.999L63 489.499L514 579.499C721.459 552.022 842.575 542.433 984 434.999L754.5 388.499H514H238Z" fill="#9B51E0"/>
<path d="M572.854 479.317C492.392 515.282 211.185 480.748 80.6394 458.985L80.8765 483.984L157.966 545.755L662.76 732.475L955.541 497.187C946.307 490.108 905.992 471.156 818.606 451.984C709.374 428.02 673.432 434.361 572.854 479.317Z" fill="#F2F2F2" stroke="black"/>
<path d="M514 1096C818.4 1103.6 954.833 655.167 985 430L757 503L514 519.5L248.5 503L0 430C90.5 777.5 133.5 1086.5 514 1096Z" fill="#BB6BD9"/>
<path d="M1106 564H939.5C893.9 815.2 819.167 900.333 787.5 911.5C838.167 909.833 963.3 907.5 1058.5 911.5C1153.7 915.5 1129.83 681.5 1106 564Z" stroke="#9B51E0" stroke-width="80"/>
<path d="M367 411C325.093 401.055 243.584 360.977 252.8 280.218C264.321 179.269 280.849 74.1575 206.72 56.4655C147.416 42.3119 98.1967 25.5912 81 19" stroke="#E0E0E0" stroke-width="40"/>
<path d="M541 411C499.24 401.055 418.016 360.977 427.2 280.218C438.68 179.269 455.15 74.1575 381.28 56.4655C322.184 42.3119 273.137 25.5912 256 19" stroke="#E0E0E0" stroke-width="40"/>
<path d="M729 411C687.24 401.055 606.016 360.977 615.2 280.218C626.68 179.269 643.15 74.1575 569.28 56.4655C510.184 42.3119 461.137 25.5912 444 19" stroke="#E0E0E0" stroke-width="40"/>
</svg>
