<svg width="1282" height="1235" viewBox="0 0 1282 1235" fill="none" xmlns="http://www.w3.org/2000/svg">
<circle cx="517.5" cy="717.5" r="517.5" fill="#BDBDBD"/>
<ellipse cx="798.5" cy="410.5" rx="60.5" ry="66.5" transform="rotate(-31.0308 798.5 410.5)" fill="#4F4F4F"/>
<path d="M531.945 335.103C504.91 323.702 450.27 309.741 447.99 345.108C445.711 380.474 503.01 353.174 531.945 335.103Z" fill="#4F4F4F"/>
<path d="M396.166 330.41C369.131 319.009 314.491 305.048 312.212 340.414C309.932 375.781 367.232 348.481 396.166 330.41Z" fill="#4F4F4F"/>
<path d="M516.703 451.441C490.741 427.316 536.102 393.806 562.027 380.067C559.278 401.748 552.105 434.843 540.478 449.487C538.889 451.489 537.216 453.146 535.461 454.382C530.011 458.218 523.759 457.998 516.703 451.441Z" fill="#4F4F4F"/>
<path d="M417.079 477.374C391.117 453.249 436.477 419.739 462.403 406C459.654 427.681 452.481 460.775 440.854 475.42C439.265 477.421 437.592 479.078 435.837 480.314C430.387 484.151 424.135 483.931 417.079 477.374Z" fill="#4F4F4F"/>
<path d="M467.716 598.191C433.573 588.692 458.464 538.087 475.178 513.972C482.698 534.491 491.533 567.182 487.936 585.531C487.444 588.039 486.72 590.279 485.728 592.184C482.65 598.095 476.997 600.772 467.716 598.191Z" fill="#4F4F4F"/>
<path d="M296.654 429.444C293.391 394.154 349.54 399.426 378.022 406.473C361.517 420.798 334.105 440.679 315.675 443.841C313.156 444.273 310.805 444.393 308.672 444.143C302.053 443.369 297.54 439.036 296.654 429.444Z" fill="#4F4F4F"/>
<path d="M374.931 482C347.957 493.545 299.977 523.183 323.851 549.375C347.726 575.567 367.852 515.372 374.931 482Z" fill="#4F4F4F"/>
<path d="M842.033 424C835.54 420.373 791.768 396.008 668.616 327.568C547.671 260.354 528.333 97.6466 533.828 20.6372C533.833 20.572 533.838 20.5069 533.842 20.4418C533.954 18.7472 534.153 12.6603 534.153 0C809.222 37.5221 865.005 188.236 858.513 258.903L842.033 424Z" fill="#828282"/>
<path d="M1026.96 272.307C995.522 225.249 930.225 147.172 920.541 211.324C911.377 272.029 833.496 351.365 789.565 388.914L778.252 391.459C779.644 392.604 789.548 401.04 818.026 425.621C846.503 450.202 969.181 333.654 1026.96 272.307Z" fill="#4F4F4F"/>
<path d="M787.75 413.164C794.869 411.867 842.814 403.052 977.638 378.173C1110.05 353.739 1225.1 463.819 1268.54 524.986C1268.58 525.037 1268.61 525.089 1268.65 525.141C1269.61 526.481 1273.22 531.17 1281.05 540.667C1051.16 682.758 916.138 604.23 877.36 547.204L787.75 413.164Z" fill="#828282"/>
</svg>
