<svg width="600" height="600" viewBox="0 0 1600 1600" fill="none" xmlns="http://www.w3.org/2000/svg">
<mask id="mask0_2423_521" style="mask-type:alpha" x="253" y="375" width="1600" height="1600">
<path d="M1126.28 1419.5C1120.11 1457.49 1075.13 1474.55 1045.31 1450.21L271.798 818.758C241.982 794.418 249.696 746.928 285.684 733.276L1219.3 379.122C1255.28 365.47 1292.55 395.896 1286.38 433.888L1126.28 1419.5Z" fill="#F2C94C"/>
</mask>
<g mask="url(#mask0_2423_521)">
<path d="M1126.28 1419.5C1120.11 1457.49 1075.13 1474.55 1045.31 1450.21L271.798 818.758C241.982 794.418 249.696 746.928 285.684 733.276L1219.3 379.122C1255.28 365.47 1292.55 395.896 1286.38 433.888L1126.28 1419.5Z" fill="#F2C94C"/>
<circle cx="719" cy="1014" r="91" fill="#D92D34"/>
<circle cx="944.5" cy="1288.5" r="127.5" fill="#D92D34"/>
<circle cx="1193" cy="1022" r="91" fill="#D92D34"/>
<circle cx="1019" cy="750" r="135" fill="#D92D34"/>
<rect x="702" y="832" width="113" height="40" fill="#219653"/>
<rect x="732" y="1232.27" width="113" height="40" transform="rotate(-53.8708 732 1232.27)" fill="#219653"/>
<rect x="897.692" y="1019.68" width="113" height="40" transform="rotate(-8.19541 897.692 1019.68)" fill="#219653"/>
<rect x="1170" y="850.928" width="113" height="40" transform="rotate(-58.094 1170 850.928)" fill="#219653"/>
<rect x="1163.54" y="1307.25" width="113" height="40" transform="rotate(-128.624 1163.54 1307.25)" fill="#219653"/>
<path d="M1336 513L358 887L297.5 867L1336 478V513Z" fill="#E3720D"/>
<path d="M1314 491L301 875L101 668L1288.5 208L1314 491Z" fill="#F2994A"/>
</g>
</svg>
