<svg width="1678" height="1233" viewBox="0 0 1678 1233" fill="none" xmlns="http://www.w3.org/2000/svg">
<mask id="mask0_2424_561" style="mask-type:alpha" maskUnits="userSpaceOnUse" x="154" y="25" width="1465" height="1158">
<path d="M214.01 1097.93C268.605 1171.22 368.11 1184.65 411.038 1182.21L1619 843.575C1589.34 507.709 1484.38 -119.934 1301.78 56.4225C1073.52 276.868 830.122 177.609 832.259 188.044C834.396 198.48 820.564 181.471 797.526 317.193C774.488 452.915 794.392 485.957 653.719 525.393L439.97 585.314C411.835 593.201 332.486 606.775 247.987 701.795C163.489 796.814 154.908 887.104 154.908 887.104C154.908 887.104 145.766 1006.32 214.01 1097.93Z" fill="#56CCF2"/>
</mask>
<g mask="url(#mask0_2424_561)">
<path d="M214.01 1097.93C268.605 1171.22 368.11 1184.65 411.038 1182.21L1619 843.575C1589.34 507.709 1484.38 -119.934 1301.78 56.4225C1073.52 276.868 830.122 177.609 832.259 188.044C834.396 198.48 820.564 181.471 797.526 317.193C774.488 452.915 794.392 485.957 653.719 525.393L439.97 585.314C411.835 593.201 332.486 606.775 247.987 701.795C163.489 796.814 154.908 887.104 154.908 887.104C154.908 887.104 145.766 1006.32 214.01 1097.93Z" fill="#56CCF2"/>
<path d="M1451.57 27.0396C1113.96 347.739 826.954 283.458 725.653 211.229L699.971 19.8037L1213.24 -85.0691C1433.36 -181.324 1789.19 -293.66 1451.57 27.0396Z" fill="#24BAEB" stroke="black"/>
<ellipse cx="234.256" cy="1104.08" rx="255.762" ry="450.81" transform="rotate(-15.66 234.256 1104.08)" fill="#24BAEB"/>
<rect x="203.481" y="1129.26" width="1580.87" height="142.68" transform="rotate(-15.66 203.481 1129.26)" fill="#F2F2F2"/>
<circle cx="850.574" cy="424.886" r="21.6298" transform="rotate(-15.66 850.574 424.886)" fill="#2D9CDB"/>
<circle cx="873.286" cy="323.148" r="21.6298" transform="rotate(-15.66 873.286 323.148)" fill="#2D9CDB"/>
<circle cx="811.021" cy="517.158" r="21.6298" transform="rotate(-15.66 811.021 517.158)" fill="#2D9CDB"/>
<circle cx="702.757" cy="569.578" r="21.6298" transform="rotate(-15.66 702.757 569.578)" fill="#2D9CDB"/>
<circle cx="579.463" cy="604.93" r="21.6298" transform="rotate(-15.66 579.463 604.93)" fill="#2D9CDB"/>
<circle cx="455.963" cy="639.551" r="21.6298" transform="rotate(-15.66 455.963 639.551)" fill="#2D9CDB"/>
<rect x="420.683" y="556.04" width="101.698" height="28.8397" rx="14.4198" transform="rotate(57.8702 420.683 556.04)" fill="#F2F2F2"/>
<rect x="545.118" y="521.945" width="101.698" height="28.8397" rx="14.4198" transform="rotate(57.8702 545.118 521.945)" fill="#F2F2F2"/>
<rect x="668.617" y="487.323" width="101.698" height="28.8397" rx="14.4198" transform="rotate(57.8702 668.617 487.323)" fill="#F2F2F2"/>
<rect x="758.057" y="444.91" width="101.698" height="28.8397" rx="14.4198" transform="rotate(44.6136 758.057 444.91)" fill="#F2F2F2"/>
<rect x="774.133" y="383.653" width="101.698" height="28.8397" rx="14.4198" transform="rotate(18.2188 774.133 383.653)" fill="#F2F2F2"/>
<rect x="793.751" y="288.3" width="101.698" height="28.8397" rx="14.4198" transform="rotate(14.3182 793.751 288.3)" fill="#F2F2F2"/>
</g>
<path d="M826.22 322.548C817.246 355.672 803.461 433.68 820.116 480.717C840.933 539.513 1041.82 571.476 946.286 621.509" stroke="#F2F2F2" stroke-width="30"/>
<path d="M809.385 332.785C788.56 376.587 747.94 483.609 752.056 561.275C757.202 658.357 685.378 615.83 679.805 604.387" stroke="#F2F2F2" stroke-width="30"/>
<path d="M672.669 404.609C603.957 436.168 682.418 372.845 730.238 337.238C846.446 263.675 826.158 293.271 801.487 317.264C787.178 333.23 741.381 373.051 672.669 404.609Z" stroke="#F2F2F2" stroke-width="30"/>
<path d="M918.966 447.968C943.127 519.616 888.401 434.935 858.018 383.638C797.077 260.341 824.376 283.628 845.644 310.683C860.017 326.591 894.804 376.32 918.966 447.968Z" stroke="#F2F2F2" stroke-width="30"/>
<circle cx="1236.87" cy="530.591" r="192.011" transform="rotate(-15.66 1236.87 530.591)" fill="#F2F2F2"/>
<circle cx="1236.87" cy="530.591" r="139.824" transform="rotate(-15.66 1236.87 530.591)" fill="#F2F2F2" stroke="#F2C94C" stroke-width="30"/>
<rect x="808.109" y="265.357" width="46.9644" height="67.2445" rx="23.4822" transform="rotate(18.9789 808.109 265.357)" fill="#F2F2F2"/>
</svg>
