<svg width="35" height="33" viewBox="0 0 35 33" fill="none" xmlns="http://www.w3.org/2000/svg">
<circle cx="11.0869" cy="11.3296" r="10.4873" fill="#07359A" stroke="#DFEFFC"/>
<path d="M2.02187 20.5795L2.4901 17.136L4.8082 19.7251L2.02187 20.5795Z" fill="#07359A" stroke="#DFEFFC"/>
<path d="M9.49347 10.4795C9.40347 10.4795 9.32247 10.4075 9.32247 10.3085V9.93049C9.32247 8.94949 10.6275 8.83249 10.6275 8.00449C10.6275 7.63549 10.3395 7.31149 9.81747 7.31149C9.17847 7.31149 8.89047 7.69849 8.71047 7.85149C8.63847 7.91449 8.56647 7.91449 8.49447 7.85149L8.19747 7.56349C8.12547 7.50049 8.14347 7.40149 8.19747 7.32949C8.19747 7.32949 8.76447 6.53749 9.90747 6.53749C10.8435 6.53749 11.5635 7.13149 11.5635 7.98649C11.5635 9.12049 10.1685 9.32749 10.1685 9.96649V10.2995C10.1685 10.4165 10.0875 10.4795 9.97947 10.4795H9.49347ZM9.10647 12.3965C9.10647 12.0455 9.38547 11.7665 9.72747 11.7665C10.0785 11.7665 10.3575 12.0455 10.3575 12.3965C10.3575 12.7385 10.0785 13.0175 9.72747 13.0175C9.38547 13.0175 9.10647 12.7385 9.10647 12.3965Z" fill="white"/>
<path d="M13.5258 21.6707C13.5258 27.4648 18.2011 32.158 23.9636 32.158C29.7261 32.158 34.4014 27.4648 34.4014 21.6707C34.4014 15.8766 29.7261 11.1833 23.9636 11.1833C18.2011 11.1833 13.5258 15.8766 13.5258 21.6707Z" fill="white" stroke="#D92D34"/>
<path d="M32.9854 30.9195L32.5199 27.4808L30.2154 30.0663L32.9854 30.9195Z" fill="white" stroke="#D92D34"/>
<path d="M19.7292 20.1667C19.1636 18.1773 22.6304 19.3419 24.4344 20.1729L25.8484 25.1462C24.0443 24.3153 20.2948 22.1561 19.7292 20.1667Z" fill="#D92D34"/>
<path d="M27.5016 17.9867C26.9385 16.0061 25.2264 18.6336 24.4407 20.1948L25.8483 25.1462C26.634 23.5849 28.0647 19.9673 27.5016 17.9867Z" fill="#D92D34"/>
</svg>
