<svg width="90" height="84" viewBox="0 0 90 84" fill="none" xmlns="http://www.w3.org/2000/svg">
<path d="M29.6045 62.5364C31.0507 66.517 33.3711 70.1456 36.4055 73.1714C39.4398 76.1973 43.1156 78.5481 47.1788 80.0615C51.242 81.5749 55.5957 82.2147 59.939 81.9368C64.2822 81.6588 68.5114 80.4697 72.3342 78.4516L84.7972 81.9024C85.2267 82.0217 85.6812 82.0273 86.1137 81.9188C86.5461 81.8103 86.9408 81.5915 87.2567 81.2853C87.5725 80.979 87.7981 80.5964 87.9101 80.177C88.022 79.7577 88.0161 79.317 87.8932 78.9006L84.3341 66.8166C86.7623 62.4985 88.0233 57.6546 87.9996 52.7364C87.9759 47.8183 86.6681 42.9861 84.1983 38.6902C81.7285 34.3944 78.1771 30.7749 73.8751 28.1691C69.5732 25.5633 64.6607 24.0561 59.5958 23.7881" stroke="#FED072" stroke-width="4" stroke-linecap="round" stroke-linejoin="round"/>
<path d="M31.8516 61.016C33.1525 64.6427 36.5623 68.9724 39.2919 71.7293C42.0215 74.4862 45.3282 76.6281 48.9833 78.0069C52.6385 79.3858 56.555 79.9688 60.4621 79.7155C64.3692 79.4622 68.1737 78.3788 71.6126 76.5401L82.824 79.6842C83.2104 79.7929 83.6193 79.798 84.0083 79.6991C84.3973 79.6003 84.7524 79.401 85.0365 79.1219C85.3207 78.8429 85.5236 78.4942 85.6243 78.1122C85.725 77.7302 85.7197 77.3286 85.6091 76.9492L82.4074 65.9393C84.5918 62.0051 85.7262 57.5918 85.7048 53.1108C85.6835 48.6298 84.5071 44.2271 82.2853 40.3131C80.0635 36.3991 76.8687 33.1013 72.9988 30.7272C69.1288 28.353 64.7097 26.9798 60.1534 26.7356" stroke="#204B9A" stroke-width="3" stroke-linecap="round" stroke-linejoin="round"/>
<path d="M54.0635 65.8571L54.0647 65.8579C54.2745 65.9887 54.5185 66.0535 54.7661 66.0424C55.0137 66.0313 55.2509 65.945 55.4483 65.7965C55.6454 65.6481 55.7935 65.4448 55.8767 65.2137C55.9598 64.9827 55.9751 64.7323 55.9212 64.493C55.9212 64.4929 55.9211 64.4928 55.9211 64.4927L55.3591 61.9706L57.0888 60.4088H57.0894L57.2317 60.2819C57.4159 60.1175 57.547 59.9025 57.6112 59.6651L57.1285 59.5346L57.6112 59.665C57.6753 59.4277 57.6703 59.1764 57.5967 58.9418C57.523 58.7071 57.3832 58.4975 57.1923 58.3409C57.0013 58.1842 56.7679 58.0878 56.5209 58.0662C56.5207 58.0662 56.5204 58.0661 56.5201 58.0661L54.0723 57.8467L53.1094 55.4778C53.1093 55.4775 53.1092 55.4773 53.1091 55.477C53.017 55.249 52.8607 55.0516 52.6574 54.9114C52.4535 54.7709 52.2123 54.6948 51.964 54.6948C51.7157 54.6948 51.4744 54.7709 51.2706 54.9114C51.0671 55.0517 50.9107 55.2493 50.8186 55.4774C50.8186 55.4775 50.8186 55.4777 50.8185 55.4778L49.8585 57.8467L47.4101 58.0661C47.4099 58.0661 47.4096 58.0662 47.4094 58.0662C47.1624 58.0878 46.929 58.1842 46.738 58.3409C46.547 58.4975 46.4072 58.7071 46.3336 58.9418C46.2599 59.1764 46.255 59.4277 46.3191 59.665L46.7979 59.5357L46.3191 59.665C46.3831 59.9019 46.5137 60.1164 46.6972 60.2806L48.5694 61.9732L48.0082 64.4927C48.0081 64.4929 48.0081 64.4932 48.008 64.4934C47.9542 64.7326 47.9696 64.9829 48.0526 65.2137C48.1358 65.4448 48.2839 65.6481 48.481 65.7965C48.6784 65.945 48.9156 66.0313 49.1632 66.0424C49.4108 66.0535 49.6549 65.9887 49.8646 65.8579L49.8662 65.8569L51.9624 64.5386L54.0635 65.8571Z" fill="#FED072" stroke="black"/>
<path d="M69.6357 65.8571L69.637 65.8579C69.8467 65.9887 70.0908 66.0535 70.3384 66.0424C70.586 66.0313 70.8232 65.945 71.0205 65.7965C71.2177 65.6481 71.3658 65.4448 71.449 65.2137C71.532 64.9827 71.5474 64.7323 71.4935 64.493C71.4934 64.4929 71.4934 64.4928 71.4934 64.4927L70.9314 61.9706L72.661 60.4088H72.6617L72.8039 60.2819C72.9881 60.1175 73.1193 59.9025 73.1834 59.6651L72.7007 59.5346L73.1834 59.665C73.2475 59.4277 73.2426 59.1764 73.1689 58.9418C73.0953 58.7071 72.9555 58.4975 72.7645 58.3409C72.5735 58.1842 72.3401 58.0878 72.0932 58.0662C72.0929 58.0662 72.0927 58.0661 72.0924 58.0661L69.6445 57.8467L68.6817 55.4778C68.6816 55.4775 68.6815 55.4773 68.6814 55.477C68.5893 55.249 68.433 55.0516 68.2296 54.9114C68.0258 54.7709 67.7845 54.6948 67.5362 54.6948C67.2879 54.6948 67.0466 54.7709 66.8428 54.9114C66.6393 55.0517 66.483 55.2493 66.3909 55.4774C66.3909 55.4775 66.3908 55.4777 66.3908 55.4778L65.4308 57.8467L62.9824 58.0661C62.9821 58.0661 62.9819 58.0662 62.9817 58.0662C62.7347 58.0878 62.5012 58.1842 62.3102 58.3409C62.1193 58.4975 61.9795 58.7071 61.9058 58.9418C61.8322 59.1764 61.8272 59.4277 61.8914 59.665L62.3702 59.5357L61.8914 59.665C61.9553 59.9019 62.086 60.1164 62.2695 60.2806L64.1416 61.9732L63.5805 64.4927C63.5804 64.4929 63.5803 64.4932 63.5803 64.4934C63.5265 64.7326 63.5418 64.9829 63.6249 65.2137C63.7081 65.4448 63.8562 65.6481 64.0533 65.7965C64.2507 65.945 64.4879 66.0313 64.7355 66.0424C64.983 66.0535 65.2271 65.9887 65.4369 65.8579L65.4385 65.8569L67.5347 64.5386L69.6357 65.8571Z" fill="#FED072" stroke="black"/>
<path d="M61.8496 50.3339L61.8508 50.3347C62.0606 50.4655 62.3047 50.5303 62.5523 50.5192C62.7998 50.5081 63.037 50.4218 63.2344 50.2733C63.4315 50.1249 63.5797 49.9216 63.6628 49.6905C63.7459 49.4595 63.7612 49.2091 63.7073 48.9698C63.7073 48.9697 63.7073 48.9696 63.7073 48.9695L63.1452 46.4474L64.8749 44.8856H64.8755L65.0178 44.7587C65.202 44.5943 65.3331 44.3793 65.3973 44.1419L64.9146 44.0114L65.3973 44.1419C65.4614 43.9045 65.4564 43.6532 65.3828 43.4186C65.3092 43.1839 65.1694 42.9743 64.9784 42.8177C64.7874 42.661 64.554 42.5646 64.307 42.543C64.3068 42.543 64.3065 42.5429 64.3063 42.5429L61.8584 42.3235L60.8956 39.9546C60.8954 39.9543 60.8953 39.9541 60.8952 39.9538C60.8031 39.7258 60.6469 39.5284 60.4435 39.3882C60.2397 39.2477 59.9984 39.1716 59.7501 39.1716C59.5018 39.1716 59.2605 39.2477 59.0567 39.3882C58.8532 39.5285 58.6969 39.7261 58.6048 39.9542C58.6047 39.9543 58.6047 39.9545 58.6046 39.9546L57.6447 42.3235L55.1962 42.5429C55.196 42.5429 55.1958 42.543 55.1955 42.543C54.9485 42.5646 54.7151 42.661 54.5241 42.8177C54.3331 42.9743 54.1933 43.1839 54.1197 43.4186C54.0461 43.6532 54.0411 43.9045 54.1052 44.1419L54.5841 44.0125L54.1052 44.1419C54.1692 44.3787 54.2998 44.5932 54.4833 44.7574L56.3555 46.45L55.7943 48.9695C55.7943 48.9697 55.7942 48.97 55.7942 48.9702C55.7404 49.2094 55.7557 49.4597 55.8388 49.6905C55.9219 49.9216 56.07 50.1249 56.2672 50.2733C56.4645 50.4218 56.7018 50.5081 56.9493 50.5192C57.1969 50.5303 57.441 50.4655 57.6507 50.3347L57.6524 50.3337L59.7485 49.0154L61.8496 50.3339Z" fill="#FED072" stroke="black"/>
<path d="M5.11096 60.1103C4.69357 60.2295 4.2518 60.2351 3.83148 60.1267C3.41116 60.0182 3.0276 59.7997 2.7206 59.4936C2.41359 59.1876 2.19433 58.8052 2.08555 58.3862C1.97677 57.9672 1.98244 57.5269 2.10197 57.1108L5.56109 45.0359C2.20045 38.8897 1.17433 31.7422 2.6708 24.9031C4.16726 18.0641 8.08606 11.9917 13.709 7.79895C19.3319 3.6062 26.2822 1.57392 33.2862 2.07459C40.2901 2.57525 46.8784 5.57533 51.8437 10.525C56.8089 15.4746 59.8185 22.0422 60.3207 29.0242C60.8229 36.0061 58.7843 42.9346 54.5783 48.5398C50.3723 54.145 44.2808 58.0515 37.4202 59.5433C30.5596 61.035 23.3895 60.0121 17.224 56.6621L5.11096 60.1103Z" stroke="#204B9A" stroke-width="4" stroke-linecap="round" stroke-linejoin="round"/>
<path d="M6.7856 57.6893C6.40531 57.7979 6.00281 57.8031 5.61985 57.7043C5.23689 57.6055 4.88743 57.4063 4.60771 57.1275C4.328 56.8486 4.12823 56.5003 4.02912 56.1185C3.93001 55.7368 3.93517 55.3355 4.04408 54.9564L7.19572 43.9548C4.13381 38.355 3.1989 31.8428 4.56234 25.6117C5.92578 19.3805 9.49624 13.8479 14.6193 10.0279C19.7424 6.20781 26.0749 4.35618 32.4563 4.81234C38.8376 5.26851 44.8403 8.00191 49.3642 12.5116C53.8881 17.0213 56.6301 23.0051 57.0877 29.3664C57.5453 35.7277 55.6879 42.0403 51.8558 47.1473C48.0236 52.2543 42.4736 55.8135 36.2228 57.1727C29.9721 58.5319 23.4393 57.5999 17.8219 54.5476L6.7856 57.6893Z" stroke="#FED072" stroke-width="3" stroke-linecap="round" stroke-linejoin="round"/>
<path d="M25.5146 43.8659L25.5159 43.8667C25.7256 43.9974 25.9697 44.0623 26.2173 44.0512C26.4649 44.0401 26.7021 43.9538 26.8994 43.8053C27.0966 43.6569 27.2447 43.4536 27.3279 43.2225C27.411 42.9915 27.4263 42.7411 27.3724 42.5018C27.3723 42.5017 27.3723 42.5016 27.3723 42.5015L26.8103 39.9793L28.54 38.4176H28.5406L28.6828 38.2906C28.8671 38.1263 28.9982 37.9113 29.0623 37.6738L28.5796 37.5434L29.0623 37.6738C29.1265 37.4365 29.1215 37.1852 29.0478 36.9506C28.9742 36.7159 28.8344 36.5063 28.6434 36.3497C28.4525 36.193 28.219 36.0966 27.9721 36.075C27.9718 36.075 27.9716 36.0749 27.9713 36.0749L25.5235 35.8555L24.5606 33.4866C24.5605 33.4863 24.5604 33.4861 24.5603 33.4858C24.4682 33.2578 24.3119 33.0604 24.1085 32.9202C23.9047 32.7797 23.6634 32.7036 23.4151 32.7036C23.1668 32.7036 22.9255 32.7797 22.7217 32.9202C22.5183 33.0605 22.3619 33.2581 22.2698 33.4862C22.2698 33.4863 22.2697 33.4864 22.2697 33.4866L21.3097 35.8555L18.8613 36.0749C18.861 36.0749 18.8608 36.0749 18.8606 36.075C18.6136 36.0966 18.3801 36.193 18.1891 36.3497C17.9982 36.5063 17.8584 36.7159 17.7847 36.9506C17.7111 37.1852 17.7061 37.4365 17.7703 37.6738L18.2491 37.5445L17.7703 37.6738C17.8342 37.9107 17.9649 38.1252 18.1484 38.2894L20.0205 39.982L19.4594 42.5015C19.4593 42.5017 19.4592 42.502 19.4592 42.5022C19.4054 42.7414 19.4208 42.9917 19.5038 43.2225C19.587 43.4536 19.7351 43.6569 19.9322 43.8053C20.1296 43.9538 20.3668 44.0401 20.6144 44.0512C20.862 44.0623 21.106 43.9974 21.3158 43.8667L21.3174 43.8656L23.4136 42.5474L25.5146 43.8659Z" fill="#FED072" stroke="black"/>
<path d="M41.0869 43.8659L41.0881 43.8667C41.2979 43.9974 41.542 44.0623 41.7896 44.0512C42.0371 44.0401 42.2744 43.9538 42.4717 43.8053C42.6688 43.6569 42.817 43.4536 42.9001 43.2225C42.9832 42.9915 42.9985 42.7411 42.9446 42.5018C42.9446 42.5017 42.9446 42.5016 42.9446 42.5015L42.3825 39.9793L44.1122 38.4176H44.1128L44.2551 38.2906C44.4393 38.1263 44.5704 37.9113 44.6346 37.6738L44.1519 37.5434L44.6346 37.6738C44.6987 37.4365 44.6937 37.1852 44.6201 36.9506C44.5465 36.7159 44.4067 36.5063 44.2157 36.3497C44.0247 36.193 43.7913 36.0966 43.5443 36.075C43.5441 36.075 43.5438 36.0749 43.5436 36.0749L41.0957 35.8555L40.1329 33.4866C40.1328 33.4863 40.1326 33.4861 40.1325 33.4858C40.0404 33.2578 39.8842 33.0604 39.6808 32.9202C39.477 32.7797 39.2357 32.7036 38.9874 32.7036C38.7391 32.7036 38.4978 32.7797 38.294 32.9202C38.0905 33.0605 37.9342 33.2581 37.8421 33.4862C37.842 33.4863 37.842 33.4864 37.8419 33.4866L36.882 35.8555L34.4335 36.0749C34.4333 36.0749 34.4331 36.0749 34.4328 36.075C34.1858 36.0966 33.9524 36.193 33.7614 36.3497C33.5704 36.5063 33.4307 36.7159 33.357 36.9506C33.2834 37.1852 33.2784 37.4365 33.3425 37.6738L33.8214 37.5445L33.3425 37.6738C33.4065 37.9107 33.5371 38.1252 33.7206 38.2894L35.5928 39.982L35.0316 42.5015C35.0316 42.5017 35.0315 42.502 35.0315 42.5022C34.9777 42.7414 34.993 42.9917 35.0761 43.2225C35.1592 43.4536 35.3073 43.6569 35.5045 43.8053C35.7018 43.9538 35.9391 44.0401 36.1866 44.0512C36.4342 44.0623 36.6783 43.9974 36.8881 43.8667L36.8897 43.8656L38.9858 42.5474L41.0869 43.8659Z" fill="#FED072" stroke="black"/>
<path d="M33.3008 28.3427L33.302 28.3435C33.5118 28.4743 33.7558 28.5391 34.0034 28.528C34.251 28.5169 34.4882 28.4306 34.6856 28.2821C34.8827 28.1337 35.0308 27.9304 35.114 27.6993C35.1971 27.4683 35.2124 27.2179 35.1585 26.9786C35.1585 26.9785 35.1585 26.9784 35.1584 26.9783L34.5964 24.4561L36.3261 22.8944H36.3267L36.469 22.7675C36.6532 22.6031 36.7843 22.3881 36.8485 22.1506L36.3658 22.0202L36.8485 22.1506C36.9126 21.9133 36.9076 21.662 36.834 21.4274C36.7603 21.1927 36.6205 20.9831 36.4296 20.8265C36.2386 20.6698 36.0052 20.5734 35.7582 20.5518C35.758 20.5518 35.7577 20.5517 35.7575 20.5517L33.3096 20.3323L32.3467 17.9634C32.3466 17.9631 32.3465 17.9629 32.3464 17.9626C32.2543 17.7346 32.098 17.5372 31.8947 17.397C31.6909 17.2565 31.4496 17.1804 31.2013 17.1804C30.953 17.1804 30.7117 17.2565 30.5079 17.397C30.3044 17.5373 30.148 17.7349 30.056 17.963C30.0559 17.9631 30.0559 17.9633 30.0558 17.9634L29.0958 20.3323L26.6474 20.5517C26.6472 20.5517 26.6469 20.5518 26.6467 20.5518C26.3997 20.5734 26.1663 20.6698 25.9753 20.8265C25.7843 20.9831 25.6445 21.1927 25.5709 21.4274C25.4973 21.662 25.4923 21.9133 25.5564 22.1506L26.0352 22.0213L25.5564 22.1506C25.6204 22.3875 25.751 22.602 25.9345 22.7662L27.8067 24.4588L27.2455 26.9783C27.2454 26.9785 27.2454 26.9788 27.2453 26.979C27.1915 27.2182 27.2069 27.4685 27.2899 27.6993C27.3731 27.9304 27.5212 28.1337 27.7184 28.2821C27.9157 28.4306 28.1529 28.5169 28.4005 28.528C28.6481 28.5391 28.8922 28.4743 29.1019 28.3435L29.1036 28.3424L31.1997 27.0242L33.3008 28.3427Z" fill="#FED072" stroke="black"/>
</svg>
