<svg width="31" height="30" viewBox="0 0 31 30" fill="none" xmlns="http://www.w3.org/2000/svg">
<circle cx="15.5676" cy="15" r="14.4324" fill="#07359A" stroke="#DFEFFC"/>
<path d="M3.03212 27.825L3.75866 22.4819L7.35558 26.4993L3.03212 27.825Z" fill="#07359A" stroke="white"/>
<path d="M14.9833 17.7909C14.8233 17.7909 14.6793 17.6629 14.6793 17.4869V16.8149C14.6793 15.0709 16.9993 14.8629 16.9993 13.3909C16.9993 12.7349 16.4873 12.1589 15.5593 12.1589C14.4233 12.1589 13.9113 12.8469 13.5913 13.1189C13.4633 13.2309 13.3353 13.2309 13.2073 13.1189L12.6793 12.6069C12.5513 12.4949 12.5833 12.3189 12.6793 12.1909C12.6793 12.1909 13.6873 10.7829 15.7193 10.7829C17.3833 10.7829 18.6633 11.8389 18.6633 13.3589C18.6633 15.3749 16.1833 15.7429 16.1833 16.8789V17.4709C16.1833 17.6789 16.0393 17.7909 15.8473 17.7909H14.9833ZM14.2953 21.1989C14.2953 20.5749 14.7913 20.0789 15.3993 20.0789C16.0233 20.0789 16.5193 20.5749 16.5193 21.1989C16.5193 21.8069 16.0233 22.3029 15.3993 22.3029C14.7913 22.3029 14.2953 21.8069 14.2953 21.1989Z" fill="white"/>
</svg>
