<svg width="31" height="30" viewBox="0 0 31 30" fill="none" xmlns="http://www.w3.org/2000/svg">
<path d="M1.00015 14.9999C1.00015 23.0104 7.46405 29.5004 15.4329 29.5004C23.4018 29.5004 29.8657 23.0104 29.8657 14.9999C29.8657 6.98944 23.4018 0.499512 15.4329 0.499512C7.46405 0.499512 1.00015 6.98944 1.00015 14.9999Z" fill="#D92D34" stroke="#D92D34"/>
<path d="M27.9687 27.8857L27.2416 22.5145L23.6421 26.553L27.9687 27.8857Z" fill="#D92D34" stroke="#D92D34"/>
<path d="M7.18246 13.5795C6.18033 10.0546 12.3229 12.118 15.5195 13.5904L18.0247 22.4024C14.8282 20.9301 8.18459 17.1044 7.18246 13.5795Z" fill="white"/>
<path d="M20.954 9.71679C19.9563 6.20751 16.9227 10.8629 15.5305 13.6293L18.0247 22.4023C19.4169 19.636 21.9517 13.2261 20.954 9.71679Z" fill="white"/>
</svg>
