<svg width="362" height="362" viewBox="0 0 362 362" fill="none" xmlns="http://www.w3.org/2000/svg">
<g clip-path="url(#clip0_32_2)">
<path d="M313.733 64.7528C310.856 62.1881 307.106 60.8221 303.254 60.9354C299.401 61.0486 295.738 62.6325 293.016 65.3618C290.295 68.0911 288.721 71.7587 288.619 75.6117C288.516 79.4647 289.893 83.2107 292.466 86.0806C317.598 111.277 331.712 145.412 331.712 181C331.712 216.588 317.598 250.723 292.466 275.919C290.934 277.285 289.697 278.948 288.831 280.808C287.964 282.668 287.486 284.685 287.426 286.736C287.365 288.787 287.724 290.828 288.48 292.736C289.236 294.643 290.373 296.376 291.822 297.829C293.271 299.282 295.001 300.424 296.906 301.185C298.811 301.947 300.852 302.311 302.903 302.257C304.954 302.202 306.972 301.73 308.835 300.869C310.697 300.007 312.364 298.775 313.733 297.247C344.521 266.394 361.812 224.587 361.812 181C361.812 137.413 344.521 95.6063 313.733 64.7528V64.7528Z" fill="white"/>
<path d="M272.903 110.003C271.511 108.562 269.847 107.413 268.007 106.623C266.167 105.832 264.187 105.416 262.185 105.399C260.182 105.381 258.196 105.763 256.342 106.521C254.488 107.28 252.804 108.4 251.388 109.816C249.972 111.232 248.852 112.916 248.093 114.77C247.335 116.624 246.953 118.61 246.971 120.612C246.988 122.615 247.404 124.594 248.195 126.435C248.985 128.275 250.134 129.939 251.575 131.331C264.722 144.517 272.105 162.379 272.105 181C272.105 199.621 264.722 217.483 251.575 230.67C250.134 232.061 248.985 233.725 248.195 235.565C247.404 237.406 246.988 239.385 246.971 241.388C246.953 243.39 247.335 245.377 248.093 247.23C248.852 249.084 249.972 250.768 251.388 252.184C252.804 253.601 254.488 254.721 256.342 255.479C258.196 256.237 260.182 256.619 262.185 256.602C264.187 256.584 266.167 256.168 268.007 255.378C269.847 254.587 271.511 253.438 272.903 251.997C291.702 233.151 302.259 207.619 302.259 181C302.259 154.381 291.702 128.849 272.903 110.003V110.003Z" fill="white"/>
<path d="M208.437 3.1223C162.606 11.7247 121.833 37.6058 94.5423 75.4167H75.4167C55.4223 75.4407 36.2537 83.394 22.1155 97.5322C7.9773 111.67 0.0239502 130.839 0 150.833L0 211.167C0.0239502 231.161 7.9773 250.33 22.1155 264.468C36.2537 278.606 55.4223 286.559 75.4167 286.583H94.5574C121.84 324.396 162.609 350.278 208.437 358.878C210.611 359.278 212.848 359.195 214.987 358.635C217.126 358.075 219.116 357.051 220.816 355.637C222.516 354.222 223.884 352.451 224.823 350.449C225.762 348.446 226.249 346.262 226.25 344.051V17.9492C226.249 15.7378 225.762 13.5537 224.823 11.5515C223.884 9.54941 222.516 7.77826 220.816 6.36354C219.116 4.94881 217.126 3.92514 214.987 3.36502C212.848 2.8049 210.611 2.72203 208.437 3.1223V3.1223Z" fill="white"/>
<line x1="-27.8464" y1="-14.358" x2="431.615" y2="431.18" stroke="#DFEFFC" stroke-width="40"/>
</g>
<defs>
<clipPath id="clip0_32_2">
<rect width="362" height="362" fill="white"/>
</clipPath>
</defs>
</svg>
