<svg width="23" height="23" viewBox="0 0 23 23" fill="none" xmlns="http://www.w3.org/2000/svg">
<circle cx="11.5" cy="11.5" r="11.5" fill="#E0E0E0"/>
<path d="M10.6655 12.192H11.7995C11.9815 12.192 12.0795 12.066 12.0795 11.898V11.436C12.0795 10.596 14.2075 10.106 14.2075 8.412C14.2075 7.04 12.9615 6.06 11.4915 6.06C9.69947 6.06 8.74747 7.292 8.74747 7.292C8.64947 7.39 8.63547 7.558 8.74747 7.656L9.40547 8.3C9.50347 8.384 9.60147 8.384 9.71347 8.314C9.99347 8.132 10.3715 7.586 11.2255 7.586C11.9255 7.586 12.3455 8.02 12.3455 8.524C12.3455 9.504 10.3995 10.008 10.3995 11.338V11.926C10.3995 12.08 10.5255 12.192 10.6655 12.192ZM10.0775 14.992C10.0775 15.622 10.5955 16.14 11.2255 16.14C11.8555 16.14 12.3875 15.622 12.3875 14.992C12.3875 14.362 11.8555 13.83 11.2255 13.83C10.5955 13.83 10.0775 14.362 10.0775 14.992Z" fill="#828282"/>
</svg>
