<svg width="25" height="25" viewBox="0 0 25 25" fill="none" xmlns="http://www.w3.org/2000/svg">
<path d="M12.4448 13.3806C12.997 13.3806 13.4448 12.9329 13.4448 12.3806C13.4448 11.8283 12.997 11.3806 12.4448 11.3806C11.8925 11.3806 11.4448 11.8283 11.4448 12.3806C11.4448 12.9329 11.8925 13.3806 12.4448 13.3806Z" stroke="black" stroke-width="2" stroke-linecap="round" stroke-linejoin="round"/>
<path d="M19.4448 13.3806C19.997 13.3806 20.4448 12.9329 20.4448 12.3806C20.4448 11.8283 19.997 11.3806 19.4448 11.3806C18.8925 11.3806 18.4448 11.8283 18.4448 12.3806C18.4448 12.9329 18.8925 13.3806 19.4448 13.3806Z" stroke="black" stroke-width="2" stroke-linecap="round" stroke-linejoin="round"/>
<path d="M5.44476 13.3806C5.99705 13.3806 6.44476 12.9329 6.44476 12.3806C6.44476 11.8283 5.99705 11.3806 5.44476 11.3806C4.89248 11.3806 4.44476 11.8283 4.44476 12.3806C4.44476 12.9329 4.89248 13.3806 5.44476 13.3806Z" stroke="black" stroke-width="2" stroke-linecap="round" stroke-linejoin="round"/>
</svg>
