<svg width="350" height="404" viewBox="0 0 350 404" fill="none" xmlns="http://www.w3.org/2000/svg">
<rect width="350" height="403.846" rx="60" fill="white"/>
<path d="M53.8462 168.269C94.2308 148.077 121.154 127.884 141.346 148.077C161.538 168.269 175 161.538 215.385 148.077C247.692 137.308 273.718 125.641 282.692 121.154L309.615 107.692" stroke="#032161" stroke-width="15"/>
<path d="M67.3076 208.655C80.7692 213.142 111.731 220.77 127.885 215.386C148.077 208.655 168.269 201.924 188.461 208.655C208.654 215.386 222.115 222.117 242.308 208.655C258.461 197.885 284.936 190.705 296.154 188.461" stroke="#032161" stroke-width="15"/>
<path d="M53.8462 269.231C74.0385 278.205 117.115 293.462 127.885 282.692C141.346 269.231 154.808 262.5 175 262.5C191.154 262.5 258.013 266.987 289.423 269.231" stroke="#032161" stroke-width="15"/>
</svg>
