<svg width="18" height="18" viewBox="0 0 18 18" fill="none" xmlns="http://www.w3.org/2000/svg">
<path d="M17.1632 15.5068L13.453 11.7951C14.5654 10.3454 15.0848 8.52693 14.9057 6.70845C14.7267 4.88997 13.8626 3.20769 12.4888 2.00286C11.115 0.798035 9.33439 0.160881 7.5081 0.220652C5.68181 0.280422 3.94663 1.03264 2.65455 2.32472C1.36247 3.61679 0.610256 5.35197 0.550486 7.17826C0.490715 9.00456 1.12787 10.7852 2.3327 12.159C3.53752 13.5328 5.21981 14.3969 7.03828 14.5759C8.85676 14.755 10.6753 14.2356 12.1249 13.1232L15.8382 16.8372C15.9254 16.9245 16.0289 16.9936 16.1428 17.0408C16.2568 17.088 16.3789 17.1123 16.5022 17.1123C16.6256 17.1123 16.7477 17.088 16.8616 17.0408C16.9756 16.9936 17.0791 16.9245 17.1663 16.8372C17.2535 16.75 17.3227 16.6465 17.3699 16.5326C17.4171 16.4186 17.4414 16.2965 17.4414 16.1732C17.4414 16.0499 17.4171 15.9277 17.3699 15.8138C17.3227 15.6999 17.2535 15.5963 17.1663 15.5091L17.1632 15.5068ZM2.43739 7.42006C2.43739 6.36935 2.74897 5.34223 3.33271 4.46859C3.91646 3.59496 4.74615 2.91404 5.71689 2.51195C6.68762 2.10986 7.75579 2.00465 8.78631 2.20964C9.81683 2.41462 10.7634 2.92059 11.5064 3.66355C12.2494 4.40652 12.7553 5.35312 12.9603 6.38364C13.1653 7.41417 13.0601 8.48233 12.658 9.45306C12.2559 10.4238 11.575 11.2535 10.7014 11.8372C9.82772 12.421 8.80061 12.7326 7.74989 12.7326C6.34137 12.7311 4.99096 12.1709 3.99499 11.175C2.99901 10.179 2.43884 8.82858 2.43739 7.42006Z" fill="#1F295A"/>
</svg>
