<svg width="13" height="15" viewBox="0 0 13 15" fill="none" xmlns="http://www.w3.org/2000/svg">
<path d="M12.4561 12.1678C12.4562 12.5082 12.3817 12.8444 12.238 13.1529C12.0942 13.4614 11.8847 13.7347 11.6241 13.9537C11.3635 14.1726 11.0581 14.3318 10.7294 14.4201C10.4007 14.5084 10.0567 14.5237 9.72147 14.4649C9.38623 14.4062 9.06793 14.2747 8.78892 14.0798C8.5099 13.8849 8.27693 13.6313 8.10636 13.3367C7.9358 13.0422 7.83178 12.7139 7.8016 12.3749C7.77142 12.0359 7.81582 11.6944 7.93168 11.3744L4.49867 9.16881C4.17079 9.49043 3.75524 9.70806 3.30414 9.7944C2.85305 9.88075 2.3865 9.83196 1.96303 9.65415C1.53956 9.47635 1.17802 9.17745 0.923778 8.79496C0.669534 8.41246 0.533905 7.96341 0.533905 7.50412C0.533905 7.04484 0.669534 6.59578 0.923778 6.21329C1.17802 5.83079 1.53956 5.5319 1.96303 5.35409C2.3865 5.17629 2.85305 5.1275 3.30414 5.21384C3.75524 5.30019 4.17079 5.51782 4.49867 5.83944L7.93168 3.63713C7.7351 3.09694 7.74444 2.50326 7.95792 1.96953C8.1714 1.4358 8.57405 0.99944 9.08894 0.743829C9.60382 0.488217 10.1948 0.431279 10.7491 0.583893C11.3033 0.736507 11.7818 1.08797 12.0933 1.57113C12.4047 2.05429 12.5272 2.63527 12.4374 3.20305C12.3475 3.77082 12.0516 4.28559 11.6062 4.64899C11.1608 5.01239 10.5972 5.19894 10.0229 5.173C9.44865 5.14705 8.90408 4.91042 8.49327 4.50833L5.06026 6.71388C5.24579 7.2266 5.24579 7.78812 5.06026 8.30084L8.49327 10.5064C8.82104 10.1856 9.23613 9.9686 9.6866 9.88252C10.1371 9.79644 10.6029 9.8451 11.0259 10.0224C11.4488 10.1998 11.8101 10.4979 12.0645 10.8795C12.3189 11.2611 12.4551 11.7092 12.4561 12.1678Z" fill="white"/>
</svg>
