<svg width="361" height="353" viewBox="0 0 361 353" fill="none" xmlns="http://www.w3.org/2000/svg">
<ellipse cx="182.071" cy="176.071" rx="175" ry="175" transform="rotate(-0.351888 182.071 176.071)" fill="#E0E0E0"/>
<path d="M267.83 122.669C260.388 141.752 239.787 168.46 216.921 122.621" stroke="#4F4F4F" stroke-width="15"/>
<path d="M146.92 122.555C139.479 141.639 118.878 168.347 96.012 122.508" stroke="#4F4F4F" stroke-width="15"/>
<rect x="58.042" y="186.378" width="248.182" height="133.636" rx="8" transform="rotate(-0.351888 58.042 186.378)" fill="white"/>
<path d="M86.8727 218.021C77.2688 208.534 54.8871 190.853 42.1913 196.022C26.3216 202.483 13.5164 189.835 7.05518 173.965" stroke="#4F4F4F" stroke-width="15"/>
<path d="M274.596 216.868C284.083 207.264 306.246 189.309 319.004 194.322C334.952 200.588 347.601 187.783 353.867 171.835" stroke="#4F4F4F" stroke-width="15"/>
<path d="M278.23 290.028C286.734 293.157 308.805 294.931 329.059 276.988" stroke="#4F4F4F" stroke-width="15"/>
<path d="M109.264 236.973L255.625 236.074" stroke="#E0E0E0" stroke-width="15"/>
<path d="M109.496 275.155L255.857 274.256" stroke="#E0E0E0" stroke-width="15"/>
<path d="M87.3211 291.2C74.6073 293.4 46.6069 293.36 36.3159 275.604" stroke="#4F4F4F" stroke-width="15"/>
</svg>
