<svg width="391" height="391" viewBox="0 0 391 391" fill="none" xmlns="http://www.w3.org/2000/svg">
<path d="M196.208 380.068C298.378 379.44 380.695 296.106 380.068 193.935C379.44 91.7644 296.106 9.44733 193.935 10.0748C91.7645 10.7023 9.44746 94.0368 10.075 196.208C10.7025 298.378 94.0369 380.695 196.208 380.068Z" fill="#6FCF97" stroke="#D92D34" stroke-width="20"/>
<path d="M280.83 141.669C273.388 160.752 252.787 187.46 229.921 141.621" stroke="#4F4F4F" stroke-width="15"/>
<path d="M159.92 141.555C152.479 160.639 131.878 187.347 109.012 141.508" stroke="#4F4F4F" stroke-width="15"/>
<rect x="71.042" y="205.377" width="248.182" height="133.636" rx="8" transform="rotate(-0.351888 71.042 205.377)" fill="white"/>
<path d="M99.8727 237.021C90.2688 227.534 67.8871 209.853 55.1913 215.022C39.3216 221.483 26.5164 208.835 20.0552 192.965" stroke="#4F4F4F" stroke-width="15"/>
<path d="M287.596 235.868C297.083 226.264 319.246 208.309 332.004 213.322C347.952 219.588 360.601 206.783 366.867 190.835" stroke="#4F4F4F" stroke-width="15"/>
<path d="M291.23 309.028C299.734 312.158 321.805 313.931 342.059 295.989" stroke="#4F4F4F" stroke-width="15"/>
<path d="M122.264 255.973L268.625 255.074" stroke="#E0E0E0" stroke-width="15"/>
<path d="M122.496 294.155L268.857 293.256" stroke="#E0E0E0" stroke-width="15"/>
<path d="M100.321 310.2C87.6073 312.4 59.6069 312.36 49.3159 294.604" stroke="#4F4F4F" stroke-width="15"/>
</svg>
