<svg width="789" height="786" viewBox="0 0 789 786" fill="none" xmlns="http://www.w3.org/2000/svg">
<ellipse cx="394.5" cy="393" rx="394.5" ry="393" fill="#E0E0E0"/>
<path d="M364.426 447.192H406.06C412.742 447.192 416.34 442.566 416.34 436.398V419.436C416.34 388.596 494.468 370.606 494.468 308.412C494.468 258.04 448.722 222.06 394.752 222.06C328.96 222.06 294.008 267.292 294.008 267.292C290.41 270.89 289.896 277.058 294.008 280.656L318.166 304.3C321.764 307.384 325.362 307.384 329.474 304.814C339.754 298.132 353.632 278.086 384.986 278.086C410.686 278.086 426.106 294.02 426.106 312.524C426.106 348.504 354.66 367.008 354.66 415.838V437.426C354.66 443.08 359.286 447.192 364.426 447.192ZM342.838 549.992C342.838 573.122 361.856 592.14 384.986 592.14C408.116 592.14 427.648 573.122 427.648 549.992C427.648 526.862 408.116 507.33 384.986 507.33C361.856 507.33 342.838 526.862 342.838 549.992Z" fill="#828282"/>
</svg>
